<?xml version="1.0" encoding="utf-8"?>
<!-- Generator: Adobe Illustrator 22.1.0, SVG Export Plug-In . SVG Version: 6.00 Build 0)  -->
<svg version="1.1" id="Layer_1" xmlns="http://www.w3.org/2000/svg" xmlns:xlink="http://www.w3.org/1999/xlink" x="0px" y="0px"
	 viewBox="0 0 136.5 60.6" style="enable-background:new 0 0 136.5 60.6;" xml:space="preserve">
<style type="text/css">
	.st0{opacity:0.75;}
	.st1{fill:#FFFFFF;}
</style>
<g class="st0">
	<path class="st1" d="M7.3,7.8C7.3,8.5,7,9,6.5,9.3C6.1,9.7,5.4,9.9,4.6,9.9c-0.9,0-1.5-0.1-2-0.3V8.7C2.9,8.9,3.2,9,3.6,9
		C4,9.1,4.3,9.1,4.7,9.1c0.6,0,1-0.1,1.3-0.3c0.3-0.2,0.4-0.5,0.4-0.9c0-0.3-0.1-0.5-0.2-0.6C6.1,7.1,6,7,5.7,6.8
		C5.5,6.7,5.1,6.5,4.6,6.4C3.9,6.1,3.4,5.8,3.1,5.5C2.8,5.1,2.7,4.7,2.7,4.2c0-0.6,0.2-1,0.6-1.4s1-0.5,1.7-0.5c0.7,0,1.4,0.1,2,0.4
		L6.8,3.5C6.2,3.2,5.6,3.1,5,3.1C4.6,3.1,4.2,3.2,4,3.4C3.7,3.6,3.6,3.8,3.6,4.2c0,0.3,0,0.5,0.1,0.6C3.8,5,4,5.1,4.2,5.3
		c0.2,0.1,0.6,0.3,1,0.5C6,6,6.5,6.3,6.8,6.6C7.1,6.9,7.3,7.3,7.3,7.8z"/>
	<path class="st1" d="M15.2,6.1c0,1.2-0.3,2.1-0.9,2.8c-0.6,0.7-1.4,1-2.5,1c-1.1,0-1.9-0.3-2.5-1C8.7,8.2,8.4,7.3,8.4,6.1
		c0-1.2,0.3-2.1,0.9-2.8c0.6-0.7,1.4-1,2.5-1c1.1,0,1.9,0.3,2.5,1C14.9,4,15.2,4.9,15.2,6.1z M9.3,6.1c0,1,0.2,1.8,0.6,2.3
		c0.4,0.5,1,0.8,1.9,0.8c0.8,0,1.4-0.3,1.9-0.8c0.4-0.5,0.6-1.3,0.6-2.3c0-1-0.2-1.7-0.6-2.3s-1-0.8-1.8-0.8c-0.8,0-1.4,0.3-1.9,0.8
		C9.5,4.4,9.3,5.1,9.3,6.1z"/>
	<path class="st1" d="M16.8,9.8V2.4h0.9V9h3.3v0.8H16.8z"/>
	<path class="st1" d="M26.4,7.8c0,0.7-0.2,1.2-0.7,1.5c-0.5,0.4-1.1,0.5-1.9,0.5c-0.9,0-1.5-0.1-2-0.3V8.7C22,8.9,22.4,9,22.7,9
		c0.4,0.1,0.7,0.1,1.1,0.1c0.6,0,1-0.1,1.3-0.3c0.3-0.2,0.4-0.5,0.4-0.9c0-0.3-0.1-0.5-0.2-0.6c-0.1-0.2-0.3-0.3-0.5-0.5
		c-0.2-0.1-0.6-0.3-1.1-0.5c-0.7-0.2-1.2-0.5-1.5-0.9c-0.3-0.3-0.4-0.8-0.4-1.3c0-0.6,0.2-1,0.6-1.4s1-0.5,1.7-0.5
		c0.7,0,1.4,0.1,2,0.4l-0.3,0.7c-0.6-0.3-1.2-0.4-1.8-0.4c-0.5,0-0.8,0.1-1.1,0.3c-0.3,0.2-0.4,0.5-0.4,0.8c0,0.3,0,0.5,0.1,0.6
		c0.1,0.2,0.3,0.3,0.5,0.4c0.2,0.1,0.6,0.3,1,0.5c0.8,0.3,1.3,0.6,1.6,0.9C26.2,6.9,26.4,7.3,26.4,7.8z"/>
	<path class="st1" d="M33.2,9.8h-1l-2.7-3.6l-0.8,0.7v2.9h-0.9V2.4h0.9v3.7l3.4-3.7h1l-3,3.2L33.2,9.8z"/>
	<path class="st1" d="M33.2,11.7c-0.3,0-0.6,0-0.7-0.1v-0.7c0.2,0.1,0.5,0.1,0.7,0.1c0.3,0,0.6-0.1,0.8-0.3c0.2-0.2,0.3-0.5,0.3-0.9
		V2.4H35v7.3c0,0.6-0.2,1.1-0.5,1.5C34.2,11.6,33.8,11.7,33.2,11.7z"/>
	<path class="st1" d="M41.1,9.8H37V2.4h4.1v0.8h-3.3v2.4h3.1v0.8h-3.1V9h3.3V9.8z"/>
	<path class="st1" d="M43.6,6.7v3.1h-0.9V2.4h2c0.9,0,1.6,0.2,2,0.5c0.4,0.3,0.6,0.9,0.6,1.6c0,1-0.5,1.6-1.5,2l2,3.3h-1l-1.8-3.1
		H43.6z M43.6,6h1.2c0.6,0,1.1-0.1,1.3-0.4c0.3-0.2,0.4-0.6,0.4-1.1c0-0.5-0.1-0.8-0.4-1.1c-0.3-0.2-0.8-0.3-1.4-0.3h-1.1V6z"/>
	<path class="st1" d="M52.4,9.8l-2.5-6.5h0c0,0.5,0.1,1.1,0.1,1.8v4.7h-0.8V2.4h1.3l2.3,6.1h0l2.4-6.1h1.3v7.4h-0.9V5
		c0-0.5,0-1.1,0.1-1.8h0l-2.5,6.5H52.4z"/>
	<path class="st1" d="M58.5,9.8V2.4h0.9v7.4H58.5z"/>
	<path class="st1" d="M67.2,9.8h-1l-4-6.2h0c0.1,0.7,0.1,1.4,0.1,2v4.2h-0.8V2.4h1l4,6.2h0c0-0.1,0-0.4,0-0.9c0-0.5,0-0.8,0-1.1V2.4
		h0.8V9.8z"/>
	<path class="st1" d="M72.4,5.9h2.5v3.6c-0.4,0.1-0.8,0.2-1.2,0.3c-0.4,0.1-0.9,0.1-1.4,0.1c-1.1,0-2-0.3-2.6-1
		c-0.6-0.7-0.9-1.6-0.9-2.8c0-0.8,0.2-1.4,0.5-2c0.3-0.6,0.8-1,1.3-1.3s1.3-0.5,2-0.5c0.8,0,1.5,0.1,2.2,0.4l-0.3,0.8
		c-0.7-0.3-1.3-0.4-1.9-0.4c-0.9,0-1.6,0.3-2.1,0.8c-0.5,0.5-0.8,1.3-0.8,2.2c0,1,0.2,1.8,0.7,2.3c0.5,0.5,1.2,0.8,2.1,0.8
		c0.5,0,1-0.1,1.5-0.2V6.7h-1.7V5.9z"/>
	<path class="st1" d="M85,2.4v4.8c0,0.8-0.3,1.5-0.8,2c-0.5,0.5-1.2,0.7-2.1,0.7c-0.9,0-1.6-0.2-2.1-0.7c-0.5-0.5-0.7-1.2-0.7-2V2.4
		h0.9v4.8c0,0.6,0.2,1.1,0.5,1.4C81,9,81.5,9.1,82.2,9.1c0.6,0,1.1-0.2,1.4-0.5s0.5-0.8,0.5-1.4V2.4H85z"/>
	<path class="st1" d="M89.2,9.8h-0.9V3.2H86V2.4h5.5v0.8h-2.3V9.8z"/>
	<path class="st1" d="M96.8,9.8h-4.1V2.4h4.1v0.8h-3.3v2.4h3.1v0.8h-3.1V9h3.3V9.8z"/>
	<path class="st1" d="M100.7,7.9c0-0.4,0.1-0.8,0.4-1.2c0.2-0.3,0.7-0.7,1.3-1c-0.3-0.3-0.5-0.6-0.6-0.7c-0.1-0.2-0.2-0.3-0.2-0.5
		s-0.1-0.4-0.1-0.6c0-0.5,0.2-0.9,0.5-1.2c0.3-0.3,0.8-0.4,1.4-0.4c0.5,0,1,0.1,1.3,0.4c0.3,0.3,0.5,0.7,0.5,1.2
		c0,0.4-0.1,0.7-0.3,1c-0.2,0.3-0.6,0.6-1.1,0.9l2.1,2c0.2-0.2,0.3-0.5,0.5-0.7s0.2-0.6,0.3-0.9h0.8c-0.2,1-0.6,1.7-1,2.2l1.5,1.5
		h-1.2l-0.9-0.9c-0.4,0.4-0.8,0.6-1.2,0.8c-0.4,0.2-0.9,0.2-1.4,0.2c-0.7,0-1.3-0.2-1.7-0.5S100.7,8.5,100.7,7.9z M103,9.1
		c0.8,0,1.5-0.3,2-0.8l-2.2-2.1c-0.4,0.2-0.6,0.4-0.8,0.6c-0.2,0.2-0.3,0.3-0.3,0.5c-0.1,0.2-0.1,0.4-0.1,0.6c0,0.4,0.1,0.7,0.4,0.9
		S102.5,9.1,103,9.1z M102.2,3.9c0,0.2,0.1,0.5,0.2,0.7c0.1,0.2,0.3,0.5,0.6,0.8c0.4-0.3,0.7-0.5,0.9-0.7c0.2-0.2,0.3-0.5,0.3-0.7
		c0-0.3-0.1-0.5-0.3-0.6S103.5,3,103.2,3c-0.3,0-0.5,0.1-0.7,0.2C102.3,3.4,102.2,3.6,102.2,3.9z"/>
	<path class="st1" d="M111.4,9.8V2.4h0.9v7.4H111.4z"/>
	<path class="st1" d="M120,9.8h-1l-4-6.2h0c0.1,0.7,0.1,1.4,0.1,2v4.2h-0.8V2.4h1l4,6.2h0c0-0.1,0-0.4,0-0.9c0-0.5,0-0.8,0-1.1V2.4
		h0.8V9.8z"/>
	<path class="st1" d="M127.8,9.8h-1l-4-6.2h0c0.1,0.7,0.1,1.4,0.1,2v4.2H122V2.4h1l4,6.2h0c0-0.1,0-0.4,0-0.9c0-0.5,0-0.8,0-1.1V2.4
		h0.8V9.8z"/>
	<path class="st1" d="M134,9.8h-4.1V2.4h4.1v0.8h-3.3v2.4h3.1v0.8h-3.1V9h3.3V9.8z"/>
</g>
<g>
	<path class="st1" d="M2.6,34.7V23.3H4v10.2h5v1.2H2.6z"/>
	<path class="st1" d="M18.2,34.7l-1.4-3.6h-4.6l-1.4,3.6H9.5L14,23.3h1.1l4.5,11.5H18.2z M16.4,29.9L15,26.4c-0.2-0.4-0.3-1-0.5-1.6
		c-0.1,0.5-0.3,1-0.5,1.6l-1.3,3.5H16.4z"/>
	<path class="st1" d="M30.2,34.7h-1.5l-6.2-9.6h-0.1c0.1,1.1,0.1,2.2,0.1,3.1v6.5h-1.2V23.3h1.5l6.2,9.5H29c0-0.1,0-0.6-0.1-1.4
		c0-0.8,0-1.3,0-1.6v-6.6h1.2V34.7z"/>
	<path class="st1" d="M42.5,28.9c0,1.9-0.5,3.3-1.5,4.3s-2.5,1.5-4.4,1.5h-3.2V23.3h3.5c1.8,0,3.2,0.5,4.1,1.5S42.5,27.2,42.5,28.9z
		 M41.1,29c0-1.5-0.4-2.6-1.1-3.4c-0.7-0.8-1.9-1.1-3.3-1.1h-1.9v9.1h1.6c1.6,0,2.8-0.4,3.6-1.2S41.1,30.5,41.1,29z"/>
	<path class="st1" d="M51.6,31.7c0,1-0.4,1.8-1.1,2.4c-0.7,0.6-1.7,0.8-3,0.8c-1.4,0-2.4-0.2-3.1-0.5v-1.3c0.5,0.2,1,0.4,1.5,0.5
		c0.6,0.1,1.1,0.2,1.6,0.2c0.9,0,1.6-0.2,2-0.5c0.4-0.3,0.7-0.8,0.7-1.4c0-0.4-0.1-0.7-0.2-1c-0.2-0.3-0.4-0.5-0.8-0.7
		c-0.4-0.2-0.9-0.5-1.7-0.7c-1.1-0.4-1.8-0.8-2.3-1.4c-0.5-0.5-0.7-1.2-0.7-2c0-0.9,0.3-1.6,1-2.1c0.7-0.5,1.5-0.8,2.6-0.8
		c1.1,0,2.2,0.2,3.1,0.6l-0.4,1.2c-0.9-0.4-1.9-0.6-2.8-0.6c-0.7,0-1.3,0.2-1.6,0.5c-0.4,0.3-0.6,0.7-0.6,1.3c0,0.4,0.1,0.7,0.2,1
		c0.1,0.3,0.4,0.5,0.7,0.7c0.3,0.2,0.9,0.4,1.6,0.7c1.2,0.4,2,0.9,2.5,1.4C51.4,30.3,51.6,30.9,51.6,31.7z"/>
	<path class="st1" d="M63.2,28.9c0,1.9-0.5,3.3-1.5,4.3s-2.5,1.5-4.4,1.5H54V23.3h3.5c1.8,0,3.2,0.5,4.1,1.5S63.2,27.2,63.2,28.9z
		 M61.8,29c0-1.5-0.4-2.6-1.1-3.4c-0.7-0.8-1.9-1.1-3.3-1.1h-1.9v9.1H57c1.6,0,2.8-0.4,3.6-1.2S61.8,30.5,61.8,29z"/>
	<path class="st1" d="M72.2,34.7h-6.4V23.3h6.4v1.2h-5v3.7h4.7v1.2h-4.7v4.2h5V34.7z"/>
	<path class="st1" d="M83,34.7h-1.6l-4.2-5.5l-1.2,1.1v4.5h-1.3V23.3h1.3V29l5.2-5.7h1.6l-4.6,5L83,34.7z"/>
	<path class="st1" d="M93,34.7h-1.6l-4.2-5.5L86,30.3v4.5h-1.3V23.3H86V29l5.2-5.7h1.6l-4.6,5L93,34.7z"/>
	<path class="st1" d="M101,34.7h-6.4V23.3h6.4v1.2h-5v3.7h4.7v1.2H96v4.2h5V34.7z"/>
	<path class="st1" d="M112.5,34.7H111l-6.2-9.6h-0.1c0.1,1.1,0.1,2.2,0.1,3.1v6.5h-1.2V23.3h1.5l6.2,9.5h0.1c0-0.1,0-0.6-0.1-1.4
		c0-0.8,0-1.3,0-1.6v-6.6h1.2V34.7z"/>
	<path class="st1" d="M124.9,28.9c0,1.9-0.5,3.3-1.5,4.3s-2.5,1.5-4.4,1.5h-3.2V23.3h3.5c1.8,0,3.2,0.5,4.1,1.5
		S124.9,27.2,124.9,28.9z M123.5,29c0-1.5-0.4-2.6-1.1-3.4c-0.7-0.8-1.9-1.1-3.3-1.1h-1.9v9.1h1.6c1.6,0,2.8-0.4,3.6-1.2
		S123.5,30.5,123.5,29z"/>
	<path class="st1" d="M133.9,34.7h-6.4V23.3h6.4v1.2h-5v3.7h4.7v1.2h-4.7v4.2h5V34.7z"/>
</g>
<g class="st0">
	<path class="st1" d="M8,53.9h3.9v5.6c-0.6,0.2-1.2,0.3-1.8,0.4s-1.3,0.1-2.2,0.1c-1.7,0-3.1-0.5-4-1.5c-1-1-1.4-2.5-1.4-4.3
		c0-1.2,0.2-2.2,0.7-3.1s1.2-1.6,2.1-2c0.9-0.5,1.9-0.7,3.1-0.7c1.2,0,2.4,0.2,3.4,0.7l-0.5,1.2c-1-0.4-2-0.7-3-0.7
		c-1.4,0-2.5,0.4-3.3,1.2s-1.2,2-1.2,3.4c0,1.5,0.4,2.7,1.1,3.5c0.8,0.8,1.9,1.2,3.3,1.2c0.8,0,1.6-0.1,2.3-0.3v-3.5H8V53.9z"/>
	<path class="st1" d="M16,55.2v4.8h-1.3V48.5h3.1c1.4,0,2.4,0.3,3.1,0.8c0.7,0.5,1,1.3,1,2.4c0,1.5-0.8,2.5-2.3,3.1l3.1,5.1h-1.6
		l-2.8-4.8H16z M16,54h1.8c0.9,0,1.6-0.2,2.1-0.6s0.7-0.9,0.7-1.7c0-0.8-0.2-1.3-0.7-1.6s-1.2-0.5-2.1-0.5H16V54z"/>
	<path class="st1" d="M31.7,59.9l-1.4-3.6h-4.6l-1.4,3.6H23l4.5-11.5h1.1l4.5,11.5H31.7z M29.9,55.1l-1.3-3.5
		c-0.2-0.4-0.3-1-0.5-1.6c-0.1,0.5-0.3,1-0.5,1.6l-1.3,3.5H29.9z"/>
	<path class="st1" d="M38.2,59.9h-1.3V49.7h-3.6v-1.2h8.6v1.2h-3.6V59.9z"/>
	<path class="st1" d="M43.5,59.9V48.5h1.3v11.4H43.5z"/>
	<path class="st1" d="M54.4,56.9c0,1-0.4,1.8-1.1,2.4c-0.7,0.6-1.7,0.8-3,0.8c-1.4,0-2.4-0.2-3.1-0.5v-1.3c0.5,0.2,1,0.4,1.5,0.5
		c0.6,0.1,1.1,0.2,1.6,0.2c0.9,0,1.6-0.2,2-0.5c0.4-0.3,0.7-0.8,0.7-1.4c0-0.4-0.1-0.7-0.2-1c-0.2-0.3-0.4-0.5-0.8-0.7
		c-0.4-0.2-0.9-0.5-1.7-0.7c-1.1-0.4-1.8-0.8-2.3-1.4c-0.5-0.5-0.7-1.2-0.7-2c0-0.9,0.3-1.6,1-2.1c0.7-0.5,1.5-0.8,2.6-0.8
		c1.1,0,2.2,0.2,3.1,0.6l-0.4,1.2c-0.9-0.4-1.9-0.6-2.8-0.6c-0.7,0-1.3,0.2-1.6,0.5c-0.4,0.3-0.6,0.7-0.6,1.3c0,0.4,0.1,0.7,0.2,1
		c0.1,0.3,0.4,0.5,0.7,0.7c0.3,0.2,0.9,0.4,1.6,0.7c1.2,0.4,2,0.9,2.5,1.4C54.2,55.4,54.4,56.1,54.4,56.9z"/>
	<path class="st1" d="M60.9,48.5h3.2c1.5,0,2.6,0.2,3.3,0.7c0.7,0.5,1,1.2,1,2.1c0,0.7-0.2,1.2-0.6,1.7c-0.4,0.4-0.9,0.7-1.7,0.9
		v0.1c1.7,0.3,2.6,1.2,2.6,2.7c0,1-0.3,1.8-1,2.4c-0.7,0.6-1.7,0.9-2.9,0.9h-4V48.5z M62.3,53.4h2.2c0.9,0,1.6-0.1,2-0.4
		c0.4-0.3,0.6-0.8,0.6-1.5c0-0.6-0.2-1.1-0.7-1.4c-0.5-0.3-1.2-0.4-2.2-0.4h-2V53.4z M62.3,54.5v4.3h2.4c0.9,0,1.6-0.2,2.1-0.5
		c0.5-0.4,0.7-0.9,0.7-1.7c0-0.7-0.2-1.2-0.7-1.6s-1.2-0.5-2.2-0.5H62.3z"/>
	<path class="st1" d="M77.7,59.9h-6.4V48.5h6.4v1.2h-5v3.7h4.7v1.2h-4.7v4.2h5V59.9z"/>
	<path class="st1" d="M81.5,59.9h-1.3V48.5h6.4v1.2h-5v4.2h4.7V55h-4.7V59.9z"/>
	<path class="st1" d="M95.6,59.9l-1.4-3.6h-4.6l-1.4,3.6h-1.3l4.5-11.5h1.1L97,59.9H95.6z M93.8,55.1l-1.3-3.5
		c-0.2-0.4-0.3-1-0.5-1.6c-0.1,0.5-0.3,1-0.5,1.6l-1.3,3.5H93.8z"/>
	<path class="st1" d="M99.9,55.2v4.8h-1.3V48.5h3.1c1.4,0,2.4,0.3,3.1,0.8c0.7,0.5,1,1.3,1,2.4c0,1.5-0.8,2.5-2.3,3.1l3.1,5.1h-1.6
		l-2.8-4.8H99.9z M99.9,54h1.8c0.9,0,1.6-0.2,2.1-0.6s0.7-0.9,0.7-1.7c0-0.8-0.2-1.3-0.7-1.6s-1.2-0.5-2.1-0.5h-1.7V54z"/>
	<path class="st1" d="M108.5,59.9V48.5h1.3v11.4H108.5z"/>
	<path class="st1" d="M121.9,59.9h-1.5l-6.2-9.6H114c0.1,1.1,0.1,2.2,0.1,3.1v6.5h-1.2V48.5h1.5l6.2,9.5h0.1c0-0.1,0-0.6-0.1-1.4
		c0-0.8,0-1.3,0-1.6v-6.6h1.2V59.9z"/>
	<path class="st1" d="M130,53.9h3.9v5.6c-0.6,0.2-1.2,0.3-1.8,0.4s-1.3,0.1-2.2,0.1c-1.7,0-3.1-0.5-4-1.5c-1-1-1.4-2.5-1.4-4.3
		c0-1.2,0.2-2.2,0.7-3.1s1.2-1.6,2.1-2c0.9-0.5,1.9-0.7,3.1-0.7c1.2,0,2.4,0.2,3.4,0.7l-0.5,1.2c-1-0.4-2-0.7-3-0.7
		c-1.4,0-2.5,0.4-3.3,1.2s-1.2,2-1.2,3.4c0,1.5,0.4,2.7,1.1,3.5c0.8,0.8,1.9,1.2,3.3,1.2c0.8,0,1.6-0.1,2.3-0.3v-3.5H130V53.9z"/>
</g>
</svg>
